<svg t="1732215864110" class="icon" viewBox="0 0 1024 1024" version="1.1" xmlns="http://www.w3.org/2000/svg" p-id="1864"
  width="200" height="200">
  <path
    d="M513.1 84C271.5 84 75 280.5 75 522.1c0 128.1 56 251.6 149.9 330.4 65.7 55.2 144.4 84.2 226.2 84.2 20.3 0 40.8-1.8 61.3-5.4 39.2-6.9 66.2-64.4 94.7-125.2 16.6-35.4 39.3-83.9 54-88.1 0.6-0.2 1.4-0.4 3.2 0.8 66.4 42.7 132.6 50 186.5 20.5 62.9-34.3 100.4-115.5 100.4-217.2C951.3 280.5 754.7 84 513.1 84z m323.5 629.2c-43.9 24-99.4 17.1-156.2-19.5-8.6-5.5-18.1-7-27.5-4.3-26.3 7.6-44.8 44.5-72.7 104-20.7 44.1-48.9 104.4-72.9 108.6-94.6 16.6-188.1-9.1-263.3-72.3-87.2-73.3-139.3-188.3-139.3-307.7 0-225.2 183.2-408.4 408.4-408.4S921.5 296.8 921.5 522c0.1 90.8-31.7 162.2-84.9 191.2z"
    fill="#F4B432" p-id="1865"></path>
  <path
    d="M508.7 148.1c-55.8 0-101.2 45.4-101.2 101.2s45.4 101.2 101.2 101.2S609.9 305 609.9 249.2s-45.4-101.1-101.2-101.1z m0 172.6c-39.4 0-71.5-32.1-71.5-71.5s32.1-71.5 71.5-71.5 71.5 32.1 71.5 71.5-32.1 71.5-71.5 71.5zM265.2 478.5c51.9 0 94.1-42.2 94.1-94.1s-42.2-94.1-94.1-94.1-94.1 42.2-94.1 94.1 42.2 94.1 94.1 94.1z m0-158.4c35.5 0 64.4 28.9 64.4 64.4s-28.9 64.4-64.4 64.4-64.4-28.9-64.4-64.4 28.9-64.4 64.4-64.4zM319.6 589.9c0-51.2-41.6-92.8-92.8-92.8S134 538.7 134 589.9s41.6 92.8 92.8 92.8 92.8-41.6 92.8-92.8zM226.8 653c-34.8 0-63.1-28.3-63.1-63.1s28.3-63.1 63.1-63.1 63.1 28.3 63.1 63.1-28.3 63.1-63.1 63.1zM348.1 703.8c-37.5 0-68.1 30.5-68.1 68.1s30.5 68.1 68.1 68.1 68.1-30.5 68.1-68.1-30.6-68.1-68.1-68.1z m0 106.4c-21.2 0-38.4-17.2-38.4-38.4s17.2-38.4 38.4-38.4 38.4 17.2 38.4 38.4-17.3 38.4-38.4 38.4zM734.9 353.5c-62.4 0-113.3 50.8-113.3 113.3S672.4 580 734.9 580s113.3-50.8 113.3-113.3-50.9-113.2-113.3-113.2z m0 196.8c-46.1 0-83.5-37.5-83.5-83.5s37.5-83.5 83.5-83.5 83.5 37.5 83.5 83.5-37.5 83.5-83.5 83.5z"
    fill="#F4B432" p-id="1866"></path>
</svg>